<?xml version="1.0" encoding="UTF-8" standalone="no"?>
<svg
   xmlns:dc="http://purl.org/dc/elements/1.1/"
   xmlns:cc="http://creativecommons.org/ns#"
   xmlns:rdf="http://www.w3.org/1999/02/22-rdf-syntax-ns#"
   xmlns:svg="http://www.w3.org/2000/svg"
   xmlns="http://www.w3.org/2000/svg"
   xmlns:sodipodi="http://sodipodi.sourceforge.net/DTD/sodipodi-0.dtd"
   xmlns:inkscape="http://www.inkscape.org/namespaces/inkscape"
   id="svg4213"
   viewBox="0 0 25 30"
   height="30"
   width="25"
   version="1.1"
   inkscape:version="0.91 r13725"
   sodipodi:docname="beach2530.svg">
  <sodipodi:namedview
     pagecolor="#ffffff"
     bordercolor="#666666"
     borderopacity="1"
     objecttolerance="10"
     gridtolerance="10"
     guidetolerance="10"
     inkscape:pageopacity="0"
     inkscape:pageshadow="2"
     inkscape:window-width="1366"
     inkscape:window-height="721"
     id="namedview4140"
     showgrid="false"
     inkscape:zoom="16.147059"
     inkscape:cx="11.1949"
     inkscape:cy="17"
     inkscape:window-x="-3"
     inkscape:window-y="-3"
     inkscape:window-maximized="1"
     inkscape:current-layer="svg4213" />
  <metadata
     id="metadata4221">
    <rdf:RDF>
      <cc:Work
         rdf:about="">
        <dc:format>image/svg+xml</dc:format>
        <dc:type
           rdf:resource="http://purl.org/dc/dcmitype/StillImage" />
        <dc:title></dc:title>
      </cc:Work>
    </rdf:RDF>
  </metadata>
  <defs
     id="defs4219" />
  <path
     id="path4215"
     d="M 15.47619,24.81 C 18.011905,24.315 20.833333,24 23.809524,24 l 0,6 -20.2380954,0 c 0,-0.975 3.8095238,-3.21 9.5238094,-4.65 l 0,-9.75 c -1,0.375 -1.845238,1.215 -2.380952,2.325 -0.726191,-1.53 -2.059524,-2.55 -3.5714289,-2.55 -1.5119047,0 -2.8452381,1.02 -3.5714285,2.55 0.035714,-5.37 4.1666666,-9.78 9.5238094,-10.365 l 0,-0.06 A 1.1904762,1.5 0 0 1 14.285714,6 1.1904762,1.5 0 0 1 15.47619,7.5 l 0,0.06 c 5.357143,0.585 9.476191,4.995 9.52381,10.365 -0.72619,-1.53 -2.059524,-2.55 -3.571429,-2.55 -1.511904,0 -2.845238,1.02 -3.571428,2.55 -0.535714,-1.11 -1.380953,-1.95 -2.380953,-2.34 l 0,9.225 M 5.952381,5.5000002e-8 A 5.952381,7.5 0 0 1 -1.5e-8,7.5 l 0,-7.499999944999998 5.952381015,0 z"
     inkscape:connector-curvature="0" />
</svg>
